<svg width="1063" height="1063" viewBox="0 0 1063 1063" fill="none" xmlns="http://www.w3.org/2000/svg">
<g clip-path="url(#clip0_359_11)">
<path d="M531.1 18.8096C814.03 18.8096 1043.4 248.17 1043.4 531.11C1043.4 814.05 814.039 1043.41 531.1 1043.41V1043.4C248.17 1043.4 18.7998 814.039 18.7998 531.1C18.8 248.16 248.17 18.8098 531.1 18.8096ZM531.09 59.2197C481.42 59.2197 433.55 66.8999 388.58 81.1299V981.14C433.54 995.37 481.42 1003.05 531.09 1003.05C617.21 1003.05 697.94 979.98 767.44 939.68C733.33 882.75 632.58 717.06 597.62 687L597.63 686.97C555.28 650.55 542.48 632.95 563.94 603.58C585.4 574.221 621.919 599.44 635.85 590.4C649.78 581.36 659.19 542.96 695.71 545.6C732.23 548.24 736.93 577.98 735.99 584C735.05 590.02 710.39 643.86 744.27 717.65C765.69 764.31 808.56 840.53 837.19 890.29C938.66 803.73 1003.01 674.94 1003.01 531.11C1003.01 387.28 933.39 248.17 824.78 161.71C787.56 209.36 712.09 305.92 684.87 340.25C648.16 386.56 660.59 419.31 662.28 432.3C663.97 445.29 673.57 468.44 667.36 506.28C661.15 544.12 618.229 561.06 618.229 561.06C618.114 561.092 588.233 569.501 553.85 554.28C519.4 539.03 504.16 516.44 492.86 485.39C481.57 454.33 492.3 401.999 513.19 381.77C534.064 361.545 579.757 309.573 579.83 309.49L735.08 105.47C673.34 75.8297 604.15 59.2197 531.09 59.2197ZM263.23 142.54C139.961 227.68 59.1906 369.96 59.1904 531.1C59.1904 692.25 139.96 834.52 263.23 919.66V142.54ZM445.64 488.19C450.53 486.31 462.58 479.53 471.62 500.24C480.641 520.906 494.899 538.564 494.96 538.64L522.82 565.75C522.88 565.812 541.624 585.35 531.86 597.75L531.85 597.74C522.06 610.16 507.76 612.42 492.7 602.26C477.681 592.127 463.974 573.749 463.9 573.65C463.9 573.65 436.51 540.9 435.48 516.8C434.441 492.711 440.75 490.07 445.64 488.19ZM531.5 -1.14441e-05C677.994 -1.14441e-05 810.618 59.4342 906.62 155.526C810.557 59.4768 677.871 0.0539746 531.3 -1.14441e-05C531.367 -3.61308e-05 531.433 -1.14441e-05 531.5 -1.14441e-05Z" fill="#BEAF89"/>
</g>
<defs>
<clipPath id="clip0_359_11">
<rect width="1062.21" height="1062.21" fill="white"/>
</clipPath>
</defs>
</svg>
